<?xml version="1.0" encoding="UTF-8" standalone="no"?>
<svg
   version="1.0"
   width="946.000000pt"
   height="946.000000pt"
   viewBox="0 0 946.000000 946.000000"
   preserveAspectRatio="xMidYMid meet"
   id="svg838"
   sodipodi:docname="tractor.svg"
   inkscape:version="1.1.2 (b8e25be8, 2022-02-05)"
   xmlns:inkscape="http://www.inkscape.org/namespaces/inkscape"
   xmlns:sodipodi="http://sodipodi.sourceforge.net/DTD/sodipodi-0.dtd"
   xmlns="http://www.w3.org/2000/svg"
   xmlns:svg="http://www.w3.org/2000/svg">
  <defs
     id="defs842" />
  <sodipodi:namedview
     id="namedview840"
     pagecolor="#ffffff"
     bordercolor="#666666"
     borderopacity="1.0"
     inkscape:pageshadow="2"
     inkscape:pageopacity="0.0"
     inkscape:pagecheckerboard="0"
     inkscape:document-units="pt"
     showgrid="false"
     inkscape:zoom="0.42732558"
     inkscape:cx="629.4966"
     inkscape:cy="819.04762"
     inkscape:window-width="1427"
     inkscape:window-height="742"
     inkscape:window-x="0"
     inkscape:window-y="25"
     inkscape:window-maximized="0"
     inkscape:current-layer="svg838" />
  <metadata
     id="metadata824">
Created by potrace 1.16, written by Peter Selinger 2001-2019
</metadata>
  <g
     transform="translate(0.000000,946.000000) scale(0.100000,-0.100000)"
     fill="#000000"
     stroke="none"
     id="g836">
    <path
       d="M1717 7422 c-10 -10 -17 -27 -17 -38 0 -11 35 -67 78 -124 l77 -105 54 3 c58 3 71 -5 71 -45 0 -20 -5 -22 -67 -25 l-68 -3 -7 -95 c-4 -52 -14 -198 -23 -325 -16 -239 -47 -577 -66 -727 -10 -74 -20 -104 -73 -210 l-61 -123 -115 -30 c-63 -17 -120 -34 -127 -38 -6 -4 -14 -30 -18 -57 -6 -46 -9 -50 -34 -50 -95 0 -198 -69 -221 -148 -27 -90 44 -196 149 -223 50 -13 52 -14 45 -43 -7 -37 3 -26 -112 -115 l-92 -73 26 -31 c15 -18 49 -56 75 -86 l49 -55 22 21 c304 272 511 403 783 492 538 175 1133 53 1599 -328 201 -165 382 -403 440 -579 50 -151 151 -622 172 -807 l7 -55 37 0 38 0 4 -50 c3 -47 2 -50 -25 -56 -27 -6 -28 -8 -25 -56 3 -51 3 -51 38 -53 19 -2 87 1 150 6 63 5 202 11 308 14 222 5 266 11 258 32 -3 8 -6 32 -6 54 l0 40 -35 -7 -35 -6 0 55 0 56 43 5 c23 3 138 8 256 12 l214 6 -7 -113 -7 -112 138 7 c76 3 177 9 226 13 l87 6 -5 31 c-4 17 -9 83 -14 146 -13 209 46 488 149 705 161 337 442 551 825 629 192 39 477 38 695 -3 58 -10 124 -22 148 -25 l43 -6 -3 72 -3 72 -171 95 -171 96 -17 53 -17 53 26 20 c62 50 73 140 28 230 -36 69 -83 102 -138 96 -22 -2 -78 4 -125 14 -318 66 -982 111 -1812 122 -102 1 -189 4 -192 7 -12 13 -31 612 -27 888 1 90 2 93 34 128 18 20 71 61 117 93 47 31 95 72 107 90 65 96 46 277 -38 357 -26 25 -38 29 -87 29 -138 0 -314 -142 -406 -328 l-49 -98 6 -307 c6 -282 18 -582 32 -774 l5 -78 -38 0 -39 0 -6 -212 c-4 -116 -7 -354 -7 -530 l0 -318 74 0 c71 0 74 -1 78 -25 l5 -25 -181 0 c-99 0 -292 -3 -427 -7 -236 -6 -246 -5 -251 13 -3 10 -9 28 -14 38 -7 19 0 19 324 13 l332 -7 0 122 c0 68 -9 515 -20 993 -10 479 -22 1011 -26 1184 l-7 313 -53 -6 -54 -6 0 34 c0 32 2 34 46 40 26 3 86 6 133 7 140 1 241 13 251 29 15 24 11 56 -8 73 -17 16 -122 12 -1503 -48 -816 -36 -1502 -65 -1525 -65 -39 0 -42 3 -93 75 -67 97 -100 115 -134 77z m2755 -187 c2 -19 2 -35 -2 -35 -17 0 -2315 -100 -2362 -103 l-58 -3 0 32 c0 32 1 33 53 38 28 3 381 19 782 37 402 17 903 39 1115 48 212 10 404 19 426 20 41 1 42 0 46 -34z m650 -184 c-5 -82 16 -163 58 -212 l27 -33 -58 -53 c-33 -31 -62 -68 -68 -86 -27 -89 -21 -486 19 -1217 37 -669 42 -741 59 -760 9 -10 79 -40 156 -68 262 -94 255 -91 255 -118 0 -15 -12 -38 -29 -55 -48 -47 -82 -41 -329 57 -119 48 -218 87 -219 88 -12 10 -103 1827 -103 2066 l0 144 42 86 c32 64 60 103 115 158 39 39 74 72 76 72 2 0 2 -31 -1 -69z m-612 27 c0 -13 9 -529 20 -1147 12 -618 19 -1125 17 -1127 -2 -3 -125 -1 -274 2 l-269 7 -23 66 c-36 101 -134 285 -209 391 -81 114 -270 306 -369 375 -71 49 -72 51 -73 95 0 25 -9 326 -20 670 -10 343 -18 626 -16 627 4 4 1048 60 1144 62 68 1 72 0 72 -21z m-1369 -50 c2 -14 28 -1028 29 -1137 0 -121 -2 -142 -15 -138 -7 3 -211 22 -452 41 -580 47 -564 45 -678 100 -53 26 -98 53 -101 61 -6 14 65 1017 72 1024 9 9 1143 57 1145 49z m-522 -1453 c225 -32 469 -109 634 -199 251 -137 476 -355 624 -604 93 -156 154 -307 89 -218 -152 208 -256 321 -406 438 -612 476 -1404 524 -2070 124 -60 -36 -112 -66 -116 -66 -3 0 6 14 20 30 14 17 30 47 36 68 13 49 13 154 -1 189 -13 32 -12 108 1 133 16 29 359 99 591 119 145 13 462 6 598 -14z m4416 -120 c55 -8 111 -17 125 -20 21 -5 33 -25 80 -141 30 -75 56 -139 58 -144 2 -4 -25 1 -60 13 -54 18 -87 21 -228 22 -186 0 -243 -11 -391 -75 -129 -55 -221 -121 -348 -247 l-114 -114 6 42 c6 43 82 209 144 314 20 33 81 128 135 212 89 135 103 152 131 157 59 8 361 -4 462 -19z m323 9 c73 -51 89 -224 23 -249 -38 -15 -101 124 -101 221 0 41 2 44 28 44 15 0 38 -7 50 -16z m-1080 -16 c7 -7 12 -19 12 -27 0 -20 -328 -651 -351 -676 -15 -15 -23 -17 -37 -9 -9 6 -18 19 -20 28 -4 17 317 645 346 679 18 20 33 22 50 5z m-244 -4 c9 -3 16 -17 16 -30 0 -34 -341 -683 -363 -690 -21 -6 -47 12 -47 32 0 15 333 658 352 681 12 15 19 16 42 7z m-230 -20 c9 -8 16 -18 16 -21 0 -19 -355 -686 -368 -690 -18 -7 -46 9 -50 28 -2 12 302 609 344 677 17 26 36 28 58 6z m-236 -6 c7 -7 12 -17 12 -24 0 -25 -338 -659 -351 -659 -10 0 -15 16 -17 51 -3 48 4 64 148 340 166 316 173 327 208 292z m-4224 -77 c24 -26 32 -124 14 -176 -16 -49 -45 -56 -112 -27 -134 60 -87 206 70 221 6 1 19 -8 28 -18z m5818 -232 c44 -17 368 -186 368 -192 0 -1 -100 -2 -223 -2 -293 -1 -453 -30 -670 -121 -372 -155 -621 -474 -717 -918 l-20 -91 6 75 c7 94 39 260 65 348 122 396 371 682 729 835 190 81 362 105 462 66z m-1102 -514 c0 -2 -5 -16 -12 -30 l-11 -25 -192 0 c-184 0 -193 1 -198 20 -3 11 -17 24 -31 30 -14 5 -26 11 -26 12 0 2 106 2 235 0 129 -1 235 -5 235 -7z m-270 -140 c0 -3 -18 -56 -39 -119 -65 -187 -109 -414 -127 -642 l-6 -92 -117 -4 c-64 -3 -119 -3 -122 1 -4 3 -9 178 -12 389 -5 358 -5 383 11 376 33 -14 132 -16 162 -4 17 7 44 29 62 49 18 21 45 39 62 42 39 8 126 11 126 4z m-557 -36 l54 -21 6 -261 c4 -144 7 -325 7 -403 l0 -141 -82 -6 c-46 -4 -104 -7 -129 -7 l-46 0 -7 108 c-3 59 -10 224 -16 367 -6 143 -12 286 -15 317 l-5 57 78 4 c42 1 82 4 89 5 6 1 36 -7 66 -19z m-343 -56 c0 -32 7 -195 15 -363 8 -168 15 -333 15 -367 l0 -63 -273 0 -273 0 -17 153 c-37 317 -112 597 -185 680 -14 16 3 17 351 17 l367 0 0 -57z m4 -984 c4 -28 6 -53 4 -55 -5 -4 -469 -26 -473 -22 -1 2 -6 27 -10 56 l-7 52 49 1 c26 1 109 5 183 8 74 4 160 8 191 9 l56 2 7 -51z"
       id="path826" />
    <path
       d="M2630 5122 c-35 -38 -38 -39 -125 -45 l-89 -6 -32 34 c-54 60 -130 40 -149 -37 -6 -23 -16 -31 -58 -43 -48 -14 -52 -14 -71 4 -70 63 -141 42 -153 -46 -5 -36 -10 -40 -84 -81 l-80 -42 -48 17 c-46 16 -50 16 -75 -1 -33 -21 -48 -59 -40 -101 5 -28 1 -35 -34 -63 -34 -27 -43 -30 -70 -23 -80 23 -133 -30 -112 -110 11 -38 9 -42 -42 -114 -52 -73 -54 -75 -96 -75 -32 0 -49 -6 -67 -25 -30 -29 -31 -59 -4 -104 20 -32 20 -35 3 -81 -16 -44 -21 -48 -56 -54 -79 -13 -104 -86 -50 -147 l28 -31 -14 -72 c-8 -39 -16 -81 -18 -93 -2 -13 -11 -23 -18 -23 -8 0 -28 -12 -45 -26 -43 -36 -43 -85 0 -125 17 -16 35 -29 39 -29 4 0 10 -22 13 -49 6 -48 4 -51 -34 -89 -58 -59 -50 -109 24 -142 40 -18 42 -21 64 -104 l22 -86 -24 -36 c-30 -45 -31 -73 -5 -107 14 -18 34 -28 64 -32 39 -6 47 -12 67 -49 21 -40 21 -43 5 -73 -38 -74 -2 -133 81 -133 47 0 49 -2 104 -69 54 -65 57 -70 52 -113 -3 -25 0 -54 6 -65 17 -32 60 -43 106 -27 37 12 41 12 78 -16 35 -26 39 -34 41 -76 2 -37 7 -51 30 -70 33 -29 50 -30 101 -4 l40 21 65 -30 c36 -15 73 -31 82 -34 9 -3 20 -21 23 -39 17 -87 90 -111 149 -49 25 26 31 27 69 20 23 -4 45 -8 49 -9 4 0 14 -15 22 -34 31 -74 91 -85 146 -27 36 37 39 38 126 45 l89 7 34 -35 c58 -60 122 -43 148 39 8 24 18 31 58 41 46 12 50 12 78 -12 28 -23 68 -31 102 -18 20 8 45 55 45 86 0 18 16 32 81 66 l80 43 43 -16 c38 -15 48 -15 72 -3 38 18 56 54 48 99 -5 33 -2 39 32 67 33 27 42 30 84 25 82 -10 120 32 99 109 -8 33 -7 44 6 61 8 12 31 45 51 73 33 49 38 52 86 56 84 9 108 56 67 132 -20 37 -20 39 -2 81 15 37 23 45 53 50 79 15 104 84 54 145 -27 31 -27 32 -15 103 18 111 20 117 37 117 28 0 74 56 74 90 0 30 -36 80 -66 91 -13 5 -27 109 -14 109 5 0 22 14 39 31 52 52 38 108 -35 140 -25 12 -44 27 -44 36 0 9 -9 47 -20 84 l-21 69 26 37 c14 21 25 48 25 60 0 36 -40 74 -86 80 -35 4 -43 11 -63 48 -21 40 -22 45 -7 73 39 75 5 131 -80 133 -48 1 -50 2 -105 68 -55 65 -57 69 -52 114 10 82 -37 120 -114 94 -36 -12 -40 -11 -80 18 -35 25 -40 34 -36 57 11 55 -31 108 -85 108 -9 0 -31 -9 -49 -19 l-31 -20 -85 36 c-79 33 -86 38 -91 68 -9 45 -34 74 -72 81 -25 5 -38 0 -66 -25 -37 -32 -53 -36 -107 -25 -24 5 -35 15 -45 39 -31 73 -91 84 -146 27z m60 -414 c0 -51 -29 -291 -50 -419 -11 -64 -20 -119 -20 -123 0 -3 -5 -6 -11 -6 -9 0 -10 62 -5 238 3 130 9 261 12 290 6 51 7 52 40 52 32 0 34 -2 34 -32z m-256 -65 c35 -195 64 -493 48 -493 -15 0 -132 500 -132 566 0 9 11 14 34 14 l34 0 16 -87z m493 47 c5 0 -55 -202 -98 -326 -63 -181 -91 -245 -96 -221 -7 27 61 333 113 514 l15 51 32 -9 c17 -5 33 -9 34 -9z m-692 -150 c59 -160 135 -419 126 -425 -13 -8 -145 275 -207 442 l-34 93 28 14 c15 8 30 11 34 8 4 -4 27 -63 53 -132z m923 45 l21 -16 -68 -112 c-73 -120 -223 -342 -247 -367 -29 -30 -14 14 47 140 74 154 199 370 214 370 6 0 20 -7 33 -15z m-1170 -102 c105 -143 266 -406 260 -425 -2 -6 -44 38 -94 98 -127 153 -154 188 -219 278 l-56 80 23 18 c13 10 26 18 30 18 3 0 29 -30 56 -67z m1372 -57 c0 -33 -400 -441 -408 -417 -4 13 132 191 264 347 95 112 96 113 120 97 13 -8 24 -21 24 -27z m-1422 -211 c179 -183 233 -245 214 -245 -20 0 -322 252 -406 339 -38 39 -39 40 -22 65 9 15 20 26 25 26 5 0 90 -83 189 -185z m1588 19 c11 -16 14 -28 8 -32 -162 -110 -479 -295 -495 -290 -25 8 426 348 462 348 5 0 16 -12 25 -26z m-1716 -179 c147 -89 275 -178 263 -182 -7 -3 -45 10 -85 28 -91 39 -396 193 -422 212 -19 14 -19 16 -3 41 l17 26 69 -35 c38 -19 110 -59 161 -90z m1829 -27 c6 -17 10 -32 9 -34 -2 -1 -50 -22 -108 -47 -139 -59 -414 -150 -437 -144 -23 5 472 250 519 256 3 1 11 -13 17 -31z m-990 -28 c221 -42 375 -268 331 -486 -35 -173 -176 -307 -355 -336 -263 -44 -515 214 -466 478 43 237 259 388 490 344z m-1040 -76 c147 -49 409 -153 417 -166 9 -14 -50 -4 -201 33 -138 34 -346 97 -358 108 -10 10 9 61 24 61 6 0 59 -16 118 -36z m2103 -165 c3 -17 0 -32 -6 -34 -34 -12 -472 -55 -553 -55 -13 0 -23 4 -23 9 0 19 423 105 541 110 34 1 37 -2 41 -30z m-1992 -84 c185 -19 290 -36 290 -45 0 -11 -241 -16 -430 -10 l-155 5 -3 33 -3 32 83 0 c46 0 144 -7 218 -15z m1863 -112 l137 -6 0 -35 0 -35 -132 6 c-139 7 -433 43 -452 55 -25 16 243 25 447 15z m-1573 -61 c0 -16 -358 -91 -512 -107 l-68 -7 0 34 0 35 83 11 c73 10 231 26 342 35 86 7 155 7 155 -1z m1343 -122 c84 -21 190 -52 237 -68 82 -28 85 -30 82 -58 -2 -16 -6 -31 -8 -33 -12 -13 -525 175 -549 200 -15 17 65 3 238 -41z m-1333 -21 c-89 -55 -465 -229 -493 -229 -11 0 -37 38 -37 54 0 9 268 113 400 156 146 48 188 54 130 19z m1210 -114 c145 -66 347 -172 356 -186 3 -6 -2 -21 -10 -34 l-16 -25 -63 31 c-135 69 -437 262 -437 280 0 11 15 5 170 -66z m-1150 -6 c-121 -104 -419 -319 -441 -319 -10 0 -44 49 -38 54 19 17 236 153 346 216 144 83 194 101 133 49z m991 -86 c98 -75 252 -209 313 -271 l49 -50 -22 -29 -23 -28 -172 176 c-175 179 -245 259 -228 259 6 0 43 -26 83 -57z m-911 -31 c-53 -74 -176 -229 -259 -324 l-76 -87 -24 24 -24 24 38 48 c56 70 365 377 372 369 4 -3 -9 -27 -27 -54z m904 -192 c51 -63 116 -148 146 -189 l54 -73 -25 -19 c-13 -10 -27 -19 -30 -19 -21 -1 -320 461 -319 492 1 17 61 -50 174 -192z m-800 93 c-78 -172 -231 -443 -249 -443 -5 0 -19 7 -29 15 -17 13 -18 18 -8 40 38 83 294 465 312 465 5 0 -6 -35 -26 -77z m711 -368 c42 -111 44 -121 28 -132 -28 -21 -48 -15 -61 20 -63 161 -173 513 -163 522 9 10 144 -272 196 -410z m-585 262 c-32 -151 -101 -421 -110 -431 -5 -5 -21 -5 -35 -2 -26 7 -27 9 -21 49 8 51 125 402 157 472 32 70 36 37 9 -88z m146 -129 c-3 -134 -9 -267 -12 -295 -6 -52 -7 -53 -40 -53 -32 0 -34 2 -34 33 0 103 67 557 83 557 7 0 8 -81 3 -242z m177 55 c54 -221 80 -360 73 -379 -3 -8 -18 -14 -34 -14 l-29 0 -22 128 c-36 213 -58 452 -43 452 6 0 31 -84 55 -187z"
       id="path828" />
    <path
       d="M2522 3743 c-35 -7 -89 -64 -102 -111 -24 -78 16 -158 95 -187 78 -30 162 3 195 78 26 55 25 93 -3 142 -37 65 -104 93 -185 78z"
       id="path830" />
    <path
       d="M7291 4654 c-19 -24 -29 -27 -99 -31 -73 -4 -79 -3 -101 21 -40 42 -87 28 -105 -29 -4 -14 -20 -25 -48 -32 -37 -10 -46 -9 -69 8 -15 10 -36 19 -47 19 -24 0 -52 -35 -52 -65 0 -15 -19 -30 -69 -56 -65 -35 -71 -36 -111 -26 -39 11 -43 10 -62 -13 -13 -16 -18 -34 -15 -53 3 -23 -3 -34 -31 -57 -28 -23 -41 -27 -68 -23 -51 8 -78 -19 -70 -70 6 -34 1 -45 -38 -100 -37 -52 -49 -62 -76 -64 -18 -1 -38 -8 -46 -14 -18 -15 -18 -60 0 -84 20 -27 -12 -96 -51 -109 -15 -5 -34 -13 -40 -19 -19 -15 -15 -58 7 -82 19 -20 19 -24 5 -99 -8 -43 -15 -80 -15 -82 0 -2 -6 -4 -14 -4 -15 0 -56 -46 -56 -62 0 -5 13 -23 29 -39 18 -17 32 -44 36 -69 6 -36 3 -44 -24 -75 -17 -20 -31 -40 -31 -46 0 -14 47 -59 62 -59 8 0 22 -32 34 -77 21 -75 21 -77 3 -107 -10 -17 -19 -37 -19 -43 0 -22 39 -53 65 -53 35 0 72 -71 56 -107 -24 -54 2 -93 64 -93 24 -1 40 -12 78 -57 43 -50 48 -60 42 -89 -10 -55 34 -87 90 -65 13 5 30 0 57 -18 31 -22 37 -32 38 -62 0 -56 36 -74 93 -48 33 15 157 -38 172 -74 25 -60 55 -71 99 -36 22 17 35 20 72 14 29 -4 47 -12 51 -23 21 -58 71 -68 111 -22 25 28 31 30 100 30 64 0 78 -3 104 -25 16 -14 36 -25 43 -25 17 0 44 27 55 55 5 13 23 26 48 33 36 11 44 10 77 -9 48 -29 81 -16 91 35 5 32 14 40 73 72 60 32 69 34 99 24 17 -6 41 -8 52 -5 20 6 36 46 31 77 -1 10 13 31 31 48 27 25 39 29 65 25 59 -10 93 26 74 79 -9 22 -5 33 37 90 40 55 52 65 78 65 31 1 64 27 64 50 0 6 -7 25 -15 40 -13 26 -13 33 3 69 11 28 25 43 42 47 32 8 60 34 60 55 0 10 -9 29 -20 43 -19 24 -19 30 -7 101 11 69 16 78 45 96 44 27 45 70 2 102 -25 18 -30 28 -30 66 0 35 5 48 25 64 38 30 34 73 -9 99 -28 16 -38 31 -50 72 -27 96 -28 103 -12 116 9 8 16 28 16 47 0 35 -20 54 -59 54 -13 0 -29 15 -44 41 -23 38 -24 44 -11 75 22 52 -2 84 -61 84 -19 0 -40 15 -75 53 -44 46 -49 57 -50 98 0 59 -16 74 -71 65 -35 -6 -47 -3 -75 19 -25 19 -34 34 -34 56 0 28 -30 69 -50 69 -6 0 -24 -7 -39 -15 -26 -13 -33 -12 -92 13 -82 35 -89 40 -89 61 0 23 -31 51 -57 51 -11 0 -32 -9 -46 -20 -39 -31 -100 -19 -126 26 -26 44 -69 47 -100 8z m-127 -510 c25 -201 26 -225 7 -222 -12 2 -25 39 -48 133 -18 72 -36 151 -39 177 -6 45 -6 47 22 50 16 2 32 -2 36 -8 4 -6 14 -65 22 -130z m176 129 c0 -22 -38 -288 -46 -325 -3 -16 -12 -28 -20 -28 -11 0 -14 23 -14 124 0 67 3 151 6 185 l7 61 33 0 c26 0 34 -4 34 -17z m166 -26 c3 -3 -47 -158 -96 -297 -16 -44 -27 -57 -40 -44 -8 8 20 160 60 316 12 45 12 46 42 37 17 -4 32 -10 34 -12z m-477 -160 c58 -180 60 -189 43 -194 -12 -5 -100 166 -140 275 -19 48 -19 53 -4 62 43 25 49 15 101 -143z m632 93 c10 -6 19 -16 19 -22 0 -15 -190 -298 -201 -298 -23 0 -15 29 37 132 72 144 103 198 116 198 5 0 18 -5 29 -10z m-803 -107 c78 -117 132 -208 132 -222 0 -21 -23 -11 -52 22 -67 77 -188 236 -188 245 0 9 37 42 47 42 1 0 29 -39 61 -87z m933 -52 c-43 -53 -217 -221 -229 -221 -6 0 -13 3 -16 8 -5 8 95 141 176 235 l50 58 24 -22 23 -22 -28 -36z m-881 -237 c0 -8 -6 -14 -12 -14 -14 0 -131 94 -223 179 l-58 52 24 26 24 25 123 -127 c67 -70 122 -134 122 -141z m1030 123 c0 -13 -286 -187 -309 -187 -43 0 15 55 193 182 l81 58 17 -23 c10 -12 18 -25 18 -30z m-1197 -130 c98 -63 129 -97 82 -89 -17 3 -304 137 -313 146 -2 2 4 18 13 35 l16 31 47 -27 c26 -14 96 -58 155 -96z m1266 1 c6 -17 10 -32 9 -33 -8 -6 -250 -95 -295 -108 -45 -12 -53 -13 -57 0 -4 10 38 36 157 93 89 44 165 80 169 80 3 0 11 -14 17 -32z m-657 -24 c68 -22 139 -90 173 -165 24 -55 27 -71 23 -138 -7 -120 -62 -206 -171 -263 -34 -19 -58 -23 -132 -23 -76 0 -97 4 -138 25 -189 96 -230 346 -81 493 91 90 197 113 326 71z m-734 -65 c155 -58 192 -75 192 -89 0 -16 -35 -12 -158 20 -192 49 -202 52 -202 64 0 24 13 56 22 56 5 0 71 -23 146 -51z m1442 -103 l0 -34 -62 -6 c-242 -25 -330 -25 -306 0 14 13 280 71 341 73 24 1 27 -2 27 -33z m-1445 -51 c160 -18 175 -22 175 -40 0 -13 -28 -15 -185 -15 l-185 0 0 35 c0 33 2 35 33 35 17 0 91 -7 162 -15z m1453 -117 l-3 -33 -70 3 c-68 3 -195 17 -262 29 -19 3 -33 11 -33 19 0 11 34 14 186 14 l185 0 -3 -32z m-1278 -23 c0 -16 -29 -25 -175 -54 -180 -35 -185 -36 -185 -13 0 11 -3 27 -6 35 -6 16 24 21 201 37 138 12 165 12 165 -5z m975 -65 c100 -21 275 -72 275 -80 0 -5 -4 -20 -10 -34 l-9 -26 -98 35 c-167 58 -238 90 -241 109 -3 13 1 16 15 12 10 -3 41 -10 68 -16z m-945 -36 c0 -10 -56 -42 -162 -94 -162 -79 -163 -79 -175 -57 -7 12 -12 27 -13 33 0 14 91 52 235 100 117 39 115 39 115 18z m1001 -121 c87 -42 159 -79 159 -82 0 -3 -9 -17 -19 -30 l-18 -23 -44 22 c-81 41 -259 162 -259 176 0 8 5 14 11 14 6 0 82 -34 170 -77z m-961 11 c-17 -19 -247 -194 -267 -201 -14 -6 -42 23 -43 43 0 10 48 41 275 175 34 21 56 10 35 -17z m850 -113 c58 -49 117 -102 133 -118 l27 -29 -24 -23 -23 -22 -126 132 c-117 121 -136 149 -104 149 7 0 59 -40 117 -89z m-794 10 c-15 -21 -66 -87 -113 -146 l-86 -107 -25 26 -26 25 53 58 c148 161 272 252 197 144z m710 -116 c44 -55 89 -113 99 -128 17 -27 17 -28 -1 -42 -10 -8 -24 -15 -31 -15 -12 0 -115 150 -172 252 -23 41 -28 57 -19 61 15 6 16 4 124 -128z m-596 99 c0 -19 -165 -324 -175 -324 -7 0 -22 8 -34 18 -20 17 -20 17 55 132 101 152 122 180 140 180 7 0 14 -3 14 -6z m515 -275 c28 -69 29 -72 10 -85 -10 -8 -24 -14 -31 -14 -15 0 -41 67 -90 228 -65 216 6 134 111 -129z m-425 220 c0 -12 -14 -83 -31 -158 -17 -75 -34 -147 -37 -159 -4 -21 -9 -23 -35 -18 -17 3 -32 8 -35 10 -11 12 109 346 125 346 7 0 13 -10 13 -21z m223 -46 c29 -103 68 -294 62 -304 -4 -5 -19 -9 -34 -9 -27 0 -29 2 -40 73 -18 112 -32 277 -26 287 13 21 23 8 38 -47z m-113 -25 c0 -40 -3 -124 -7 -186 l-6 -113 -31 3 -31 3 2 65 c2 60 29 259 38 288 2 6 11 12 20 12 12 0 15 -14 15 -72z"
       id="path832" />
    <path
       d="M7195 3580 c-38 -15 -67 -57 -72 -102 -11 -114 124 -179 205 -98 95 94 -10 251 -133 200z"
       id="path834" />
  </g>
  <rect
     style="fill:#ff6600;stroke:#000000;stroke-width:3.42738;stroke-linejoin:round;stroke-dasharray:10.2822, 3.42738"
     id="rect946"
     width="130.28387"
     height="49.549171"
     x="190.91315"
     y="330.65399" />
</svg>
